HIERARCHY
ROOT Hips
{
	OFFSET 0.000000 0.000000 0.000000
	CHANNELS 6 Xposition Yposition Zposition Xrotation Yrotation Zrotation
	JOINT LeftUpLeg_virtual
	{
		OFFSET 0.000000 0.000000 0.000000
		CHANNELS 3 Xrotation Yrotation Zrotation
		JOINT LeftUpLeg
		{
			OFFSET 13.026900 -6.336304 -1.092800
			CHANNELS 3 Xrotation Yrotation Zrotation
			JOINT LeftLeg
			{
				OFFSET 0.524474 -46.096886 9.782700
				CHANNELS 3 Xrotation Yrotation Zrotation
				JOINT LeftFoot
				{
					OFFSET -0.524474 -53.427422 -12.948200
					CHANNELS 3 Xrotation Yrotation Zrotation
					JOINT LeftToeBase
					{
						OFFSET 0.192200 -14.009700 16.364100
						CHANNELS 3 Xrotation Yrotation Zrotation
						JOINT LeftToe_End
						{
							OFFSET -1.784700 -0.561700 9.474800
							CHANNELS 3 Xrotation Yrotation Zrotation
							End Site
							{
								OFFSET 0 0 0
							}
						}
					}
				}
			}
		}
	}
	JOINT RightUpLeg_virtual
	{
		OFFSET 0.000000 0.000000 0.000000
		CHANNELS 3 Xrotation Yrotation Zrotation
		JOINT RightUpLeg
		{
			OFFSET -12.883000 -6.336304 -1.092800
			CHANNELS 3 Xrotation Yrotation Zrotation
			JOINT RightLeg
			{
				OFFSET -0.524587 -46.096825 9.782800
				CHANNELS 3 Xrotation Yrotation Zrotation
				JOINT RightFoot
				{
					OFFSET 0.524587 -53.427383 -12.948300
					CHANNELS 3 Xrotation Yrotation Zrotation
					JOINT RightToeBase
					{
						OFFSET -0.192200 -14.009700 16.364100
						CHANNELS 3 Xrotation Yrotation Zrotation
						JOINT RightToe_End
						{
							OFFSET 1.784700 -0.561700 9.474800
							CHANNELS 3 Xrotation Yrotation Zrotation
							End Site
							{
								OFFSET 0 0 0
							}
						}
					}
				}
			}
		}
	}
	JOINT Spine_virtual
	{
		OFFSET 0.000000 0.000000 0.000000
		CHANNELS 3 Xrotation Yrotation Zrotation
		JOINT Spine
		{
			OFFSET 0.072000 7.257294 -0.789700
			CHANNELS 3 Xrotation Yrotation Zrotation
			JOINT Spine1
			{
				OFFSET 0.000000 12.508769 -0.658067
				CHANNELS 3 Xrotation Yrotation Zrotation
				JOINT Spine1_split
				{
					OFFSET 0.000000 12.508769 -0.658067
					CHANNELS 3 Xrotation Yrotation Zrotation
					JOINT Spine2
					{
						OFFSET 0.000000 12.508769 -0.658067
						CHANNELS 3 Xrotation Yrotation Zrotation
						JOINT Neck_virtual
						{
							OFFSET 0.000000 0.000000 0.000000
							CHANNELS 3 Xrotation Yrotation Zrotation
							JOINT Neck
							{
								OFFSET 0.000000 14.033295 7.520400
								CHANNELS 3 Xrotation Yrotation Zrotation
								JOINT Head
								{
									OFFSET 0.000000 8.198502 5.703100
									CHANNELS 3 Xrotation Yrotation Zrotation
									JOINT HeadTop_End
									{
										OFFSET 0.000000 17.760803 13.332701
										CHANNELS 3 Xrotation Yrotation Zrotation
										End Site
										{
											OFFSET 0 0 0
										}
									}
								}
							}
						}
						JOINT LeftShoulder_virtual
						{
							OFFSET 0.000000 0.000000 0.000000
							CHANNELS 3 Xrotation Yrotation Zrotation
							JOINT LeftShoulder
							{
								OFFSET 6.292450 5.785301 -0.669000
								CHANNELS 3 Xrotation Yrotation Zrotation
								JOINT LeftShoulder_split
								{
									OFFSET 6.292450 5.785301 -0.669000
									CHANNELS 3 Xrotation Yrotation Zrotation
									JOINT LeftArm
									{
										OFFSET 13.907140 -6.093903 1.965100
										CHANNELS 3 Xrotation Yrotation Zrotation
										JOINT LeftForeArm
										{
											OFFSET 34.140198 0.000000 0.000000
											CHANNELS 3 Xrotation Yrotation Zrotation
											JOINT LeftHand
											{
												OFFSET 40.960209 0.000000 0.000000
												CHANNELS 3 Xrotation Yrotation Zrotation
												End Site
												{
													OFFSET 0 0 0
												}
											}
										}
									}
								}
							}
						}
						JOINT RightShoulder_virtual
						{
							OFFSET 0.000000 0.000000 0.000000
							CHANNELS 3 Xrotation Yrotation Zrotation
							JOINT RightShoulder
							{
								OFFSET -6.292450 5.785301 -0.669000
								CHANNELS 3 Xrotation Yrotation Zrotation
								JOINT RightShoulder_split
								{
									OFFSET -6.292450 5.785301 -0.669000
									CHANNELS 3 Xrotation Yrotation Zrotation
									JOINT RightArm
									{
										OFFSET -13.907140 -6.093903 1.965100
										CHANNELS 3 Xrotation Yrotation Zrotation
										JOINT RightForeArm
										{
											OFFSET -34.140198 0.000000 0.000000
											CHANNELS 3 Xrotation Yrotation Zrotation
											JOINT RightHand
											{
												OFFSET -40.960209 0.000000 0.000000
												CHANNELS 3 Xrotation Yrotation Zrotation
												End Site
												{
													OFFSET 0 0 0
												}
											}
										}
									}
								}
							}
						}
					}
				}
			}
		}
	}
}
MOTION
Frames: 9
Frame Time: 0.03333333
0.843113 105.830353 -3.224178 0.000000 0.000000 0.000000 3.420618 -10.231435 -1.338108 -45.090091 3.054227 9.532160 34.451638 2.213490 3.164973 5.104942 -1.168195 -5.389816 0.814392 -0.750364 -1.063760 0.000000 0.000000 0.000000 3.064555 -10.531423 -1.253024 -9.433716 -12.501615 -11.824327 27.811053 -7.867638 0.774815 -16.656347 -6.097139 16.067865 -1.076112 0.409507 1.081454 0.000000 0.000000 0.000000 3.843117 -9.559005 -1.650555 21.632947 4.722290 1.907968 1.778570 2.023280 -0.461027 0.466275 -0.164288 0.217735 0.000000 0.000000 0.000000 2.463238 2.058486 -0.169037 -5.479765 16.329353 1.452526 7.956777 48.286582 -21.561592 0.000000 0.000000 0.000000 2.704897 2.351304 -0.404450 2.140002 -34.974711 5.723405 0.324296 0.523288 -4.533115 -25.085506 -15.860949 -66.801470 -0.288137 -45.718073 -7.799840 0.000000 0.000000 0.000000 3.214231 2.096882 -0.383142 8.540948 21.159550 -10.306525 -1.103793 3.502212 0.446061 -42.695291 14.723011 82.139138 -0.662075 53.240655 2.863178 0.000000 0.000000 0.000000 
0.920026 105.789116 -2.769367 0.000000 0.000000 0.000000 3.511765 -9.483276 -1.378339 -45.437892 3.173715 9.219557 34.739473 1.953084 3.244370 4.933382 -1.225563 -5.118658 0.820654 -0.763226 -1.057797 0.000000 0.000000 0.000000 3.135228 -9.881172 -1.289619 -8.572919 -12.475393 -11.793193 27.065653 -8.419270 0.814223 -16.540975 -6.210316 16.592155 -1.063886 0.382133 1.122350 0.000000 0.000000 0.000000 3.980630 -8.842173 -1.687485 21.438290 4.759824 1.467695 1.723828 2.124221 -0.644441 0.467483 -0.142346 0.186669 0.000000 0.000000 0.000000 2.429782 2.153545 -0.381066 -5.530629 16.191085 1.769865 7.013415 47.937430 -20.631205 0.000000 0.000000 0.000000 2.706226 2.435823 -0.660041 1.998382 -35.514948 5.684983 0.074581 0.475725 -4.837813 -24.672218 -15.806087 -66.623632 -0.232282 -45.523187 -6.696301 0.000000 0.000000 0.000000 3.222295 2.236391 -0.617042 8.384482 20.296045 -10.035420 -0.849223 3.652243 0.412092 -43.003923 15.281572 83.079709 -0.677992 52.674562 2.452257 0.000000 0.000000 0.000000 
0.985495 105.750168 -2.321991 0.000000 0.000000 0.000000 3.616819 -8.840763 -1.363042 -45.726754 3.264944 8.913663 35.035985 1.760244 3.304141 4.732752 -1.265216 -4.893952 0.829384 -0.774091 -1.056748 0.000000 0.000000 0.000000 3.215538 -9.348003 -1.267415 -7.863701 -12.402667 -11.807369 26.474368 -8.900619 0.834262 -16.449498 -6.315314 17.096107 -1.068803 0.358415 1.150985 0.000000 0.000000 0.000000 4.134094 -8.237047 -1.658329 21.244945 4.743712 0.992370 1.678984 2.205111 -0.821606 0.478666 -0.114248 0.174119 0.000000 0.000000 0.000000 2.407092 2.230931 -0.590944 -5.629709 15.946151 2.120880 5.800732 47.403753 -19.400256 0.000000 0.000000 0.000000 2.708912 2.502705 -0.908053 1.857460 -36.021858 5.656416 -0.131473 0.463355 -5.075629 -24.057588 -15.910133 -66.400777 -0.211770 -45.491567 -5.630602 0.000000 0.000000 0.000000 3.227890 2.355593 -0.838595 8.272962 19.684441 -9.834801 -0.679964 3.754406 0.430743 -43.219098 15.632553 83.881055 -0.768808 52.284678 2.188636 0.000000 0.000000 0.000000 
1.041072 105.710945 -1.899384 0.000000 0.000000 0.000000 3.742509 -8.301194 -1.301292 -45.975649 3.303418 8.610927 35.360207 1.629175 3.354165 4.519643 -1.287669 -4.724341 0.851502 -0.782174 -1.063005 0.000000 0.000000 0.000000 3.314628 -8.911312 -1.198014 -7.285621 -12.292653 -11.851547 25.994657 -9.316796 0.834094 -16.406027 -6.417372 17.560532 -1.079207 0.340669 1.165916 0.000000 0.000000 0.000000 4.303729 -7.740950 -1.585900 21.059444 4.666965 0.490159 1.640927 2.262683 -0.988665 0.462331 -0.061644 0.175867 0.000000 0.000000 0.000000 2.384320 2.287660 -0.796391 -5.787694 15.621187 2.521896 4.434494 46.764365 -17.915535 0.000000 0.000000 0.000000 2.712605 2.549942 -1.139564 1.734838 -36.521121 5.678026 -0.289940 0.490616 -5.246147 -23.271692 -16.156044 -66.155990 -0.224071 -45.601659 -4.617940 0.000000 0.000000 0.000000 3.232056 2.450948 -1.040422 8.198412 19.317783 -9.697401 -0.574377 3.814240 0.458266 -43.302832 15.767743 84.510812 -0.896340 52.007335 2.034560 0.000000 0.000000 0.000000 
1.096984 105.675903 -1.493153 0.000000 0.000000 0.000000 3.897563 -7.861174 -1.207713 -46.198215 3.273525 8.311254 35.719284 1.555205 3.404343 4.292031 -1.287532 -4.612760 0.897129 -0.787520 -1.077280 0.000000 0.000000 0.000000 3.442423 -8.551928 -1.096486 -6.817454 -12.156165 -11.907864 25.585381 -9.681958 0.814497 -16.407235 -6.522613 17.962653 -1.069544 0.331225 1.168810 0.000000 0.000000 0.000000 4.486775 -7.361035 -1.487786 20.893016 4.532366 -0.023474 1.610568 2.293403 -1.142372 0.440615 0.013255 0.183336 0.000000 0.000000 0.000000 2.358182 2.322989 -0.993471 -6.008717 15.245959 2.996896 3.022723 46.099720 -16.251762 0.000000 0.000000 0.000000 2.717657 2.572108 -1.349580 1.637874 -37.038231 5.760897 -0.412488 0.614497 -5.366092 -22.374965 -16.511491 -65.925293 -0.267325 -45.793632 -3.661078 0.000000 0.000000 0.000000 3.235311 2.520087 -1.223271 8.155359 19.169051 -9.624212 -0.523575 3.845428 0.468366 -43.263757 15.686083 84.948340 -1.034651 51.827335 1.954396 0.000000 0.000000 0.000000 
1.154047 105.645119 -1.121513 0.000000 0.000000 0.000000 4.076494 -7.508068 -1.099515 -46.394699 3.184282 8.023277 36.087380 1.530921 3.458917 4.046240 -1.269433 -4.564071 0.957353 -0.789944 -1.094400 0.000000 0.000000 0.000000 3.598092 -8.260307 -0.980093 -6.453509 -12.011050 -11.966824 25.217448 -10.005896 0.780777 -16.430508 -6.631080 18.297115 -1.031577 0.330392 1.161278 0.000000 0.000000 0.000000 4.672552 -7.091858 -1.376663 20.757251 4.349070 -0.530210 1.580088 2.295976 -1.282881 0.441125 0.097471 0.181267 0.000000 0.000000 0.000000 2.327021 2.335628 -1.180701 -6.290927 14.849081 3.540224 1.654862 45.475256 -14.506145 0.000000 0.000000 0.000000 2.723031 2.568994 -1.538809 1.568460 -37.594283 5.888811 -0.566882 0.813383 -5.453284 -21.390559 -16.944400 -65.714493 -0.341141 -46.008824 -2.758539 0.000000 0.000000 0.000000 3.239338 2.559084 -1.388474 8.136911 19.197804 -9.613230 -0.504487 3.923908 0.414424 -43.128516 15.448788 85.232510 -1.161123 51.756882 1.919732 0.000000 0.000000 0.000000 
1.209676 105.622314 -0.781109 0.000000 0.000000 0.000000 4.272485 -7.238695 -0.986977 -46.567134 3.057360 7.761088 36.434220 1.540796 3.516841 3.798804 -1.245489 -4.588854 1.008751 -0.789797 -1.106835 0.000000 0.000000 0.000000 3.773389 -8.026740 -0.860430 -6.197446 -11.878948 -12.026855 24.873295 -10.287922 0.738011 -16.438170 -6.735018 18.583534 -0.984510 0.337260 1.143974 0.000000 0.000000 0.000000 4.860535 -6.932045 -1.259271 20.659884 4.133846 -1.011816 1.545064 2.273983 -1.410726 0.424328 0.174434 0.160466 0.000000 0.000000 0.000000 2.298155 2.329553 -1.356718 -6.625469 14.466132 4.134229 0.374127 44.946067 -12.790156 0.000000 0.000000 0.000000 2.732011 2.542777 -1.705911 1.522826 -38.197304 6.039871 -0.768054 1.075698 -5.531852 -20.374825 -17.388062 -65.549216 -0.466745 -46.184544 -1.917369 0.000000 0.000000 0.000000 3.244415 2.570241 -1.537588 8.140116 19.360832 -9.661271 -0.483016 4.072832 0.324178 -42.928671 15.119080 85.413585 -1.254745 51.781221 1.909475 0.000000 0.000000 0.000000 
1.262468 105.610909 -0.488731 0.000000 0.000000 0.000000 4.474025 -7.040515 -0.874105 -46.725280 2.918564 7.535761 36.738805 1.571841 3.573427 3.578245 -1.224325 -4.684113 1.033991 -0.788742 -1.108627 0.000000 0.000000 0.000000 3.963916 -7.847762 -0.741517 -6.050997 -11.772752 -12.095142 24.561572 -10.523538 0.692873 -16.408643 -6.824592 18.830586 -0.953586 0.350050 1.118607 0.000000 0.000000 0.000000 5.042414 -6.880178 -1.130903 20.601469 3.905152 -1.453512 1.506143 2.233991 -1.525120 0.418036 0.223287 0.143873 0.000000 0.000000 0.000000 2.277141 2.311902 -1.518844 -6.999113 14.120180 4.730252 -0.789984 44.542932 -11.218367 0.000000 0.000000 0.000000 2.741286 2.503094 -1.852645 1.489194 -38.834239 6.173743 -1.015603 1.365631 -5.601042 -19.388972 -17.803117 -65.445281 -0.621895 -46.274153 -1.123852 0.000000 0.000000 0.000000 3.252340 2.561668 -1.672053 8.157677 19.609183 -9.756632 -0.422690 4.244373 0.230383 -42.686111 14.759072 85.530962 -1.310187 51.892325 1.907856 0.000000 0.000000 0.000000 
1.304038 105.612511 -0.235653 0.000000 0.000000 0.000000 4.666936 -6.905110 -0.759680 -46.867925 2.796317 7.355537 36.992779 1.615987 3.621957 3.405168 -1.203167 -4.825065 1.046900 -0.787793 -1.103626 0.000000 0.000000 0.000000 4.151817 -7.726599 -0.621909 -6.011632 -11.702872 -12.183755 24.291824 -10.711160 0.651498 -16.345331 -6.893582 19.029703 -0.921140 0.367395 1.087621 0.000000 0.000000 0.000000 5.222367 -6.921887 -0.990848 20.579285 3.683008 -1.848957 1.462613 2.188503 -1.629219 0.400811 0.254602 0.128601 0.000000 0.000000 0.000000 2.267017 2.292672 -1.663442 -7.385373 13.820180 5.262202 -1.844371 44.255255 -9.868577 0.000000 0.000000 0.000000 2.749910 2.464564 -1.979379 1.454291 -39.483186 6.266086 -1.277426 1.628848 -5.635351 -18.468594 -18.154988 -65.411779 -0.789259 -46.242341 -0.362644 0.000000 0.000000 0.000000 3.258778 2.546639 -1.791891 8.187342 19.901068 -9.891518 -0.321891 4.399784 0.151064 -42.412596 14.415603 85.604858 -1.317374 52.036776 1.902154 0.000000 0.000000 0.000000 
